inDegrees=yes
name=ik_greeting_orientation
DataType=double
version=3
OpenSimVersion=4.5
endheader
time	pelvis_tilt	pelvis_list	pelvis_rotation	pelvis_tx	pelvis_ty	pelvis_tz	hip_flexion_r	hip_adduction_r	hip_rotation_r	knee_angle_r	knee_angle_r_beta	ankle_angle_r	subtalar_angle_r	mtp_angle_r	hip_flexion_l	hip_adduction_l	hip_rotation_l	knee_angle_l	knee_angle_l_beta	ankle_angle_l	subtalar_angle_l	mtp_angle_l	lumbar_extension	lumbar_bending	lumbar_rotation	arm_flex_r	arm_add_r	arm_rot_r	elbow_flex_r	pro_sup_r	wrist_flex_r	wrist_dev_r	arm_flex_l	arm_add_l	arm_rot_l	elbow_flex_l	pro_sup_l	wrist_flex_l	wrist_dev_l
2.134615384615381	3.139354049559194	7.634360099076258	90.53586564189342	0	0.93	0	-7.934022395936289	2.867842632941093	0.4658800776800078	0.4787977745127164	0.00835659761646829	-4.954625907881822	0	0	-8.471768821060765	-2.576581524398911	-4.255190388257627	0.9996209877240047	0.0174466775078217	-4.95462590787874	0	0	0	0	0	0	0	89.84194800429958	0	2.666514980955877e-38	0	0	0	0	89.54687604867257	0	9.654309888321882e-39	0	0
2.153846153846151	0.8641390654619134	8.572118183474277	90.47769963626313	0	0.93	0	-8.730261616842608	0.9776322330552289	-1.299066796045234	0.5660991930900419	0.009880294812304362	-4.955033233921744	0	0	-9.432571029664459	-0.7606167535783186	-0.7558674610419069	0.5142688209470135	0.008975684165874569	-4.955033233936379	0	0	0	0	0	0	0	89.23856392828961	1.254507622562118e-45	0	0	0	0	0	89.46370775361504	0	0	0	0
2.17307692307692	-0.06321528565156127	8.285210868254964	90.18932574137726	0	0.93	0	-8.230548819323481	0.2462397453145085	-0.6699066013597728	0.7744188552068377	0.01351615881288455	-4.956817695662522	0	0	-8.33581884118928	0.9064121537645213	-6.463333560544395	1.886575993905927	0.0329269626827429	-4.956817695676652	0	0	0	0	0	0	0	86.49958300692607	0	0	0	0	0	0	89.30907895772141	0	0	0	0
2.192307692307689	-0.8311636569572929	8.031740194296319	89.97955044432901	0	0.93	0	-8.130262459690531	-0.5873407351591694	-0.3016981610427841	0.5833992063911188	0.01018223700504697	-4.957011584363693	0	0	-8.304773283490835	1.608146760216949	-4.452624053815279	1.369586715809482	0.02390379758245133	-4.957011584377759	0	0	0	0	0	0	0	86.80938446129538	1.727351256466758e-38	1.281286027176297e-38	0	0	0	0	89.29006938494774	0	4.253121811737058e-40	0	0
2.211538461538458	-2.241249888031393	7.15784325226582	90.33106892829424	0	0.93	0	-7.536148905261917	-1.948064481311476	-0.935005653525768	0.6165659400143085	0.01076110570890354	-4.957719596895853	0	0	-6.98017679541494	3.806351192478929	-7.8825043399286	2.242271066032634	0.03913501282447265	-4.95771959690969	0	0	0	0	0	0	0	87.61347238489176	5.954087625361311e-40	2.807409291957806e-39	0	0	0	0	89.34974172102881	1.277722466453101e-38	2.281860256195928e-39	0	0
2.230769230769227	-3.307316188589101	5.992700321824293	90.41627088249304	0	0.93	0	-6.696350175276382	-3.287464017789723	-1.437453948987324	0.4830971982028252	0.008431636715798932	-4.958074594479338	0	0	-6.054909420478854	5.093161848593548	-6.064639367379671	1.870120010161282	0.03263975158474419	-4.958074594493054	0	0	0	0	0	0	0	88.16050700317561	2.456373098567338e-39	0	0	0	0	0	89.34882011335048	0	9.075121941198213e-39	0	0
2.249999999999996	-3.004492222962064	5.82629718849909	90.1703715637358	0	0.93	0	-6.730041356008791	-3.239532337411222	-0.5726584717356064	0.3984117496811612	0.00695359681056773	-4.958573034186691	0	0	-6.389787889309207	4.201746004610265	-1.629827340208013	0.605233454284027	0.01056331652047485	-4.958573034200245	0	0	0	0	0	0	0	87.42851048822426	0	1.279848362910967e-39	0	0	0	0	89.16987299348018	9.240503210640218e-39	0	0	0
2.269230769230766	-2.618351777023183	6.420501794581861	90.26802418254924	0	0.93	0	-7.416882902715014	-3.035524422976296	0.5594094249931479	0.4352337076725575	0.007596261214548635	-4.959239627496334	0	0	-6.520118526935255	4.181362714311295	-5.841470033944652	1.500903454441721	0.02619570703456474	-4.95923962750967	0	0	0	0	0	0	0	88.97743726221941	1.528931164997582e-44	0	0	0	0	0	89.29382149148391	0	7.24875301311072e-45	0	0
2.288461538461535	-2.319306714100753	5.265373794950966	90.46995815728475	0	0.93	0	-6.330898438793319	-2.588251871651627	0.1993170831801205	0.3753038596051358	0.006550288045552165	-4.959482912290931	0	0	-5.622792156789876	3.773061429629935	-4.373683216262361	1.072442447931064	0.01871765175454492	-4.95948291230419	0	0	0	0	0	0	0	88.92133148182351	0	0	0	0	0	0	89.27019737474909	1.687997321474336e-39	1.185275949347755e-38	0	0
2.307692307692304	-1.735143249537169	3.947070713067845	90.77245592226188	0	0.93	0	-5.006157707967777	-1.718481492889278	-1.140580975163623	0.4829312194477931	0.008428739840035261	-4.959780007057754	0	0	-4.572159869571744	2.927036186792429	-2.425232775449639	0.8003813471470763	0.0139692897792642	-4.959780007069504	0	0	0	0	0	0	0	89.80172892596286	0	0	0	0	0	0	89.55818609774181	0	0	0	0
2.326923076923073	-1.391182238910895	3.342354336358124	91.02220006170167	0	0.93	0	-4.270624547121328	-1.668170941986428	-0.09515778594729275	0.4935231981275104	0.00861360474229737	-4.9599187942381	0	0	-3.810927356764113	2.527865175335811	-3.228944507977597	0.953821037251768	0.01664731757483084	-4.959918794245744	0	0	0	0	0	0	0	89.8622887676698	0	1.295937619187143e-39	0	0	0	0	89.62179673831142	0	0	0	0
2.346153846153842	-1.17286025164327	3.374146994975467	90.98233591678378	-4.72790412807003e-43	0.93	-9.604268860939781e-33	-4.163013658894897	-1.380599506282267	-0.7372666284655693	0.5197256915810421	0.009070924525293757	-4.960159372324508	6.348675304024198e-19	-7.616829498911297e-20	-3.813705247203621	1.204713576328254	-0.1159360364660673	0.8966886347094027	0.01565016904089178	-4.960159372332106	5.754858035548899e-20	2.178908291211196e-18	-8.624384828041273e-30	1.471791614087564e-24	-2.013844748485385e-31	-1.676028017999117e-20	-1.412039602353356e-20	89.9253293682834	1.916388935323033e-07	1.916391341472614e-07	8.925018274822216e-23	-1.759782742021506e-23	9.849453694715509e-20	6.301055534129435e-20	89.79504486552207	1.916380742955876e-07	1.916384146000307e-07	-2.594975032683337e-23	5.615971943696865e-24
2.365384615384611	-0.9757267111687651	3.10148003294189	91.14379069807379	0	0.93	0	-3.710571870435887	-1.301614124102877	1.014304425880918	0.421034834026047	0.007348444119342373	-4.960550742236491	0	0	-3.623595276417694	0.5814627934434139	-2.589551023390853	1.047995088654414	0.0182909648417494	-4.960550742244016	0	0	0	0	0	0	0	89.92186409060083	1.268622017257511e-38	7.303009151630789e-39	0	0	0	0	89.84333403647577	0	0	0	0
2.384615384615381	-0.6392140152636497	3.153707125750391	91.66806987102898	0	0.93	0	-3.353627667966149	-0.7784177546937563	-1.239634006140155	0.7606108343037059	0.0132751633849407	-4.961011082015752	0	0	-3.731823307625586	-0.03622236038812564	-0.5024922831140393	0.8656231980369568	0.01510797488738781	-4.961011082023189	0	0	0	0	0	0	0	89.95781849694897	1.009080079335363e-38	0	0	0	0	0	89.82513090094935	4.130317374505595e-41	2.571118076844646e-40	0	0
2.40384615384615	-1.04778218456115	2.588139070746637	91.36851138155906	0	0.93	0	-2.585985847316929	-1.448227738720921	-0.825849345259801	0.6004249563199641	0.01047939239892651	-4.961168398420764	0	0	-3.376578198237397	0.2181897769154273	0.1833752356259549	0.6651525999727924	0.01160910289772597	-4.961168398431573	0	0	0	0	0	0	0	89.9398647099834	0	2.8879712624635e-39	0	0	0	0	89.78582987137364	0	2.010010504722613e-38	0	0
2.423076923076919	-0.8815715045262454	1.432973044749746	90.57030829130609	0	0.93	0	-1.058236704100059	-1.022686674459994	-0.6892239973395093	0.7991469065742329	0.01394774472684788	-4.961388192037149	0	0	-1.876671255650472	0.4733869112308199	-2.480657634152491	0.9229434274106673	0.01610840161795743	-4.961388192046073	0	0	0	0	0	0	0	89.83857564684719	0	0	0	0	0	0	89.61444200927923	0	0	0	0
2.442307692307688	-0.3443447605966518	0.9417723555894759	91.09034290450474	0	0.93	0	-0.4345626933371455	-0.2403627384731783	-1.262442596962217	0.7368022544947759	0.01285962527705103	-4.961531999853256	0	0	-1.147065098838577	0.199746983699515	-1.953864235735872	1.047129605507144	0.018275859311209	-4.96153199986206	0	0	0	0	0	0	0	89.91952281288009	0	0	0	0	0	0	89.6158282097508	0	0	0	0
